<!DOCTYPE svg PUBLIC "-//W3C//DTD SVG 1.1//EN" "http://www.w3.org/Graphics/SVG/1.1/DTD/svg11.dtd">

<!-- Uploaded to: SVG Repo, www.svgrepo.com, Transformed by: SVG Repo Mixer Tools -->
<svg fill="" width="64px" height="64px" viewBox="0 0 24 24" id="secure" data-name="Flat Color" xmlns="http://www.w3.org/2000/svg" class="icon flat-color">

<g id="SVGRepo_bgCarrier" stroke-width="0"/>

<g id="SVGRepo_tracerCarrier" stroke-linecap="round" stroke-linejoin="round"/>

<g id="SVGRepo_iconCarrier">

<path id="primary" d="M19.42,3.83,12.24,2a1,1,0,0,0-.48,0L4.58,3.83A2,2,0,0,0,3.07,5.92l.42,5.51a12,12,0,0,0,7.24,10.11l.88.38a1,1,0,0,0,.78,0l.88-.38a12,12,0,0,0,7.24-10.11l.42-5.51A2,2,0,0,0,19.42,3.83Z" />

<path id="secondary" d="M11,14a1,1,0,0,1-.71-.29l-2-2a1,1,0,0,1,1.42-1.42L11,11.59l3.29-3.3a1,1,0,0,1,1.42,1.42l-4,4A1,1,0,0,1,11,14Z" style="fill: #ffffff;"/>

</g>

</svg>